<svg id="Layer_1" data-name="Layer 1" xmlns="http://www.w3.org/2000/svg" viewBox="0 0 100 100"><defs><style>.cls-1{fill:#a0c541;}.cls-2{fill:#161612;}</style></defs><rect class="cls-1" width="100" height="100" rx="14.64"/><path class="cls-2" d="M79.74,25.7V48.25a6.13,6.13,0,0,1-6.47,6.21H33.46v.09h-.87c-1.23,0-1.67.52-1.67,1.66v14.5H56.77v-8h23V80.59H20.26V50.87a6.26,6.26,0,0,1,6.47-6.29H67.42a1.44,1.44,0,0,0,1.66-1.66V31c0-1.13-.44-1.74-1.66-1.74H44.8c-1.22,0-1.66.61-1.66,1.74V36.1H20.26V25.7a6.2,6.2,0,0,1,6.47-6.29H73.27A6.15,6.15,0,0,1,79.74,25.7Z"/></svg>