<svg id="Layer_1" data-name="Layer 1" xmlns="http://www.w3.org/2000/svg" viewBox="0 0 500 304.4"><defs><style>.cls-1{font-size:76.6px;fill:#969596;font-family:Ambit-Italic, Ambit;font-style:italic;letter-spacing:0.1em;}.cls-2{letter-spacing:0.06em;}.cls-3{letter-spacing:0.1em;}.cls-4{fill:#a0c541;}.cls-5{fill:#161612;}</style></defs><text class="cls-1" transform="translate(106.92 279.16)">SPO<tspan class="cls-2" x="177.93" y="0">R</tspan><tspan class="cls-3" x="232.47" y="0">T</tspan></text><path class="cls-4" d="M99.2,55V177.76c0,8.83-6.63,15.9-16.34,15.9H16.18c-9.49,0-16.33-7.07-16.33-15.9V55c0-9,6.84-15.9,16.33-15.9H82.86C92.57,39.11,99.2,46,99.2,55ZM68.07,64.06H31c-3.09,0-4.2,1.55-4.2,4.42V164.3c0,2.87,1.11,4.41,4.2,4.41H68.07c3.09,0,4.19-1.54,4.19-4.41V68.48C72.26,65.61,71.16,64.06,68.07,64.06Z"/><path class="cls-4" d="M221.29,39.11V193.66H190.82l-49-101.78V193.66h-26.5V39.11h30.91L194.8,140.23V39.11Z"/><path class="cls-4" d="M264.56,64.06v39.52h46.36v25.17H264.56v40h62v24.95h-89V39.11h89v25Z"/><path class="cls-5" d="M499.85,55v57c0,8.83-6.63,15.68-16.34,15.68H382.94v.22h-2.21c-3.09,0-4.19,1.32-4.19,4.19v36.65h65.29V148.4h58v45.26H349.6V118.59c0-8.83,6.84-15.89,16.34-15.89H468.72c3.09,0,4.19-1.55,4.19-4.2v-30c0-2.87-1.1-4.42-4.19-4.42H411.6c-3.1,0-4.2,1.55-4.2,4.42v12.8H349.6V55c0-9,6.84-15.9,16.34-15.9H483.51C493.22,39.11,499.85,46,499.85,55Z"/></svg>