<svg id="Layer_1" data-name="Layer 1" xmlns="http://www.w3.org/2000/svg" viewBox="0 0 500 295.76"><defs><style>.cls-1{font-size:76.6px;fill:#969596;font-family:Ambit-Italic, Ambit;font-style:italic;letter-spacing:0.1em;}.cls-2{letter-spacing:0.06em;}.cls-3{letter-spacing:0.1em;}.cls-4{fill:#e3de00;}.cls-5{fill:#161612;}</style></defs><text class="cls-1" transform="translate(106.92 270.52)">SPO<tspan class="cls-2" x="177.93" y="0">R</tspan><tspan class="cls-3" x="232.47" y="0">T</tspan></text><path class="cls-4" d="M99.2,46.37V169.12c0,8.83-6.63,15.9-16.34,15.9H16.18C6.69,185-.15,178-.15,169.12V46.37c0-9,6.84-15.9,16.33-15.9H82.86C92.57,30.47,99.2,37.32,99.2,46.37ZM68.07,55.42H31c-3.09,0-4.2,1.55-4.2,4.42v95.82c0,2.87,1.11,4.41,4.2,4.41H68.07c3.09,0,4.19-1.54,4.19-4.41V59.84C72.26,57,71.16,55.42,68.07,55.42Z"/><path class="cls-4" d="M221.29,30.47V185H190.82l-49-101.78V185h-26.5V30.47h30.91L194.8,131.59V30.47Z"/><path class="cls-4" d="M264.56,55.42V94.94h46.36v25.17H264.56v40h62v25h-89V30.47h89v25Z"/><path class="cls-5" d="M499.85,46.37v57c0,8.83-6.63,15.68-16.34,15.68H382.94v.22h-2.21c-3.09,0-4.19,1.32-4.19,4.19v36.65h65.29V139.76h58V185H349.6V110c0-8.83,6.84-15.89,16.34-15.89H468.72c3.09,0,4.19-1.55,4.19-4.2v-30c0-2.87-1.1-4.42-4.19-4.42H411.6c-3.1,0-4.2,1.55-4.2,4.42v12.8H349.6V46.37c0-9,6.84-15.9,16.34-15.9H483.51C493.22,30.47,499.85,37.32,499.85,46.37Z"/></svg>