<svg id="Layer_1" data-name="Layer 1" xmlns="http://www.w3.org/2000/svg" viewBox="0 0 1000 576"><defs><style>.cls-1{font-size:153.19px;fill:#969596;font-family:Ambit-Italic, Ambit;font-style:italic;letter-spacing:0.1em;}.cls-2{letter-spacing:0.06em;}.cls-3{fill:#a0c541;}.cls-4{fill:#161612;}</style></defs><text class="cls-1" transform="translate(214.15 536.56)">SPO<tspan class="cls-2" x="355.86" y="0">R</tspan><tspan x="464.93" y="0">T</tspan></text><path class="cls-3" d="M198.7,88.26v245.5c0,17.66-13.24,31.79-32.67,31.79H32.68c-19,0-32.68-14.13-32.68-31.79V88.26c0-18.11,13.69-31.8,32.68-31.8H166C185.46,56.46,198.7,70.15,198.7,88.26Zm-62.26,18.1H62.26c-6.18,0-8.39,3.09-8.39,8.83V306.83c0,5.74,2.21,8.83,8.39,8.83h74.18c6.19,0,8.39-3.09,8.39-8.83V115.19C144.83,109.45,142.63,106.36,136.44,106.36Z"/><path class="cls-3" d="M442.89,56.46V365.55H382L283.92,162V365.55h-53V56.46h61.82L389.9,258.7V56.46Z"/><path class="cls-3" d="M529.43,106.36v79h92.73v50.34H529.43v79.92H653.5v49.89H475.56V56.46H653.5v49.9Z"/><path class="cls-4" d="M1000,88.26V202.18c0,17.66-13.24,31.35-32.68,31.35H766.18V234h-4.41c-6.18,0-8.39,2.65-8.39,8.39v73.3H884V275h116v90.52H699.51V215.42c0-17.66,13.69-31.79,32.68-31.79H937.74c6.18,0,8.39-3.09,8.39-8.39V115.19c0-5.74-2.21-8.83-8.39-8.83H823.5c-6.18,0-8.39,3.09-8.39,8.83V140.8H699.51V88.26c0-18.11,13.69-31.79,32.68-31.79H967.32C986.76,56.47,1000,70.15,1000,88.26Z"/></svg>