<svg id="Layer_1" data-name="Layer 1" xmlns="http://www.w3.org/2000/svg" viewBox="0 0 500 199.63"><defs><style>.cls-1{fill:#a0c541;}</style></defs><path class="cls-1" d="M0-.8V200.44H500V-.8ZM323.71,192.28H8.15V7.35H323.71ZM476,96c0,7.7-5.79,13.65-14.24,13.65H374.1v.19h-1.9c-2.69,0-3.67,1.17-3.67,3.67v31.93h56.92V127.73H476v39.44H345.07V101.75c0-7.7,6-13.87,14.22-13.87h89.58c2.7,0,3.65-1.33,3.65-3.64V58.07c0-2.5-.95-3.83-3.65-3.83H399.08c-2.69,0-3.64,1.33-3.64,3.83V69.24H345.07V46.33c0-7.89,6-13.84,14.22-13.84H461.76c8.45,0,14.24,5.95,14.24,13.84Z"/><path class="cls-1" d="M98.91,32.49H40.8c-8.27,0-14.25,5.95-14.25,13.84v107c0,7.69,6,13.86,14.25,13.86H98.91c8.45,0,14.24-6.17,14.24-13.86v-107C113.15,38.44,107.36,32.49,98.91,32.49ZM89.67,141.56c0,2.51-1,3.86-3.65,3.86H53.68c-2.69,0-3.64-1.35-3.64-3.86V58.07c0-2.5,1-3.83,3.64-3.83H86c2.69,0,3.65,1.33,3.65,3.83Z"/><path class="cls-1" d="M196.46,32.49v88.12L154.11,32.49H127.17V167.17h23.11V78.48L193,167.17h26.55V32.49Z"/><path class="cls-1" d="M311.29,54.24V32.49H233.77V167.17h77.52V145.42H257.23V110.61h40.42V88.67H257.23V54.24Z"/></svg>