<svg id="Layer_1" data-name="Layer 1" xmlns="http://www.w3.org/2000/svg" viewBox="0 0 500 201.24"><defs><style>.cls-1{fill:#e3de00;}</style></defs><path class="cls-1" d="M0,0V201.24H500V0ZM323.71,193.09H8.15V8.15H323.71ZM476,96.79c0,7.69-5.79,13.64-14.24,13.64H374.1v.19h-1.9c-2.69,0-3.67,1.17-3.67,3.67v31.94h56.92v-17.7H476V168H345.07V102.55c0-7.69,6-13.86,14.22-13.86h89.58c2.7,0,3.65-1.33,3.65-3.64V58.87c0-2.5-.95-3.83-3.65-3.83H399.08c-2.69,0-3.64,1.33-3.64,3.83V70H345.07V47.13c0-7.88,6-13.83,14.22-13.83H461.76c8.45,0,14.24,6,14.24,13.83Z"/><path class="cls-1" d="M98.91,33.3H40.8c-8.27,0-14.25,6-14.25,13.83v107c0,7.69,6,13.86,14.25,13.86H98.91c8.45,0,14.24-6.17,14.24-13.86v-107C113.15,39.25,107.36,33.3,98.91,33.3ZM89.67,142.37c0,2.5-1,3.86-3.65,3.86H53.68c-2.69,0-3.64-1.36-3.64-3.86V58.87c0-2.5,1-3.83,3.64-3.83H86c2.69,0,3.65,1.33,3.65,3.83Z"/><path class="cls-1" d="M196.46,33.3v88.11L154.11,33.3H127.17V168h23.11V79.28L193,168h26.55V33.3Z"/><path class="cls-1" d="M311.29,55V33.3H233.77V168h77.52V146.23H257.23V111.41h40.42V89.48H257.23V55Z"/></svg>