<svg id="Layer_1" data-name="Layer 1" xmlns="http://www.w3.org/2000/svg" viewBox="0 0 1000 402.48"><defs><style>.cls-1{fill:#a0c541;}</style></defs><path class="cls-1" d="M0,0V402.48H1000V0ZM647.42,386.17H16.31V16.31H647.42ZM952,193.57c0,15.39-11.52,27.29-28.48,27.29H748.26v.38H744.4c-5.38,0-7.28,2.34-7.28,7.34v63.87H850.89V257.07H952v78.87H690.15V205.1c0-15.38,12-27.72,28.48-27.72H897.75c5.38,0,7.34-2.67,7.34-7.29V117.74c0-5-2-7.66-7.34-7.66H798.22c-5.38,0-7.34,2.66-7.34,7.66v22.34H690.15V94.26c0-15.76,12-27.67,28.48-27.67H923.52c17,0,28.48,11.91,28.48,27.67Z"/><path class="cls-1" d="M197.81,66.59H81.65c-16.58,0-28.49,11.91-28.49,27.67v214c0,15.38,11.91,27.72,28.49,27.72H197.81c17,0,28.49-12.34,28.49-27.72v-214C226.3,78.5,214.77,66.59,197.81,66.59ZM179.33,284.74c0,5-1.9,7.71-7.28,7.71H107.41c-5.38,0-7.33-2.71-7.33-7.71v-167c0-5,2-7.66,7.33-7.66h64.64c5.38,0,7.28,2.66,7.28,7.66Z"/><path class="cls-1" d="M392.91,66.59V242.82L308.27,66.59H254.4V335.94h46.15V158.51L386,335.94h53.05V66.59Z"/><path class="cls-1" d="M622.64,110.08V66.59H467.55V335.94H622.64V292.45H514.51V222.82h80.78V179H514.51V110.08Z"/></svg>