<svg id="Layer_1" data-name="Layer 1" xmlns="http://www.w3.org/2000/svg" viewBox="0 0 500 201.24"><defs><style>.cls-1{fill:#161612;}</style></defs><path class="cls-1" d="M0,0V201.24H500V0ZM323.71,193.09H8.15V8.15H323.71ZM476,96.79c0,7.69-5.76,13.64-14.24,13.64H374.13v.19H372.2c-2.69,0-3.64,1.17-3.64,3.67v31.94h56.89v-17.7H476V168H345.08V102.55c0-7.69,6-13.86,14.24-13.86h89.55c2.7,0,3.67-1.33,3.67-3.64V58.87c0-2.5-1-3.83-3.67-3.83H399.11c-2.69,0-3.67,1.33-3.67,3.83V70H345.08V47.13c0-7.88,6-13.83,14.24-13.83H461.76c8.48,0,14.24,6,14.24,13.83Z"/><path class="cls-1" d="M98.91,33.3H40.82c-8.29,0-14.24,6-14.24,13.83v107c0,7.69,6,13.86,14.24,13.86H98.91c8.48,0,14.24-6.17,14.24-13.86v-107C113.15,39.25,107.39,33.3,98.91,33.3ZM89.67,142.37c0,2.5-1,3.86-3.65,3.86H53.71c-2.69,0-3.67-1.36-3.67-3.86V58.87c0-2.5,1-3.83,3.67-3.83H86c2.69,0,3.65,1.33,3.65,3.83Z"/><path class="cls-1" d="M196.46,33.3v88.11L154.14,33.3H127.2V168h23.08V79.26L193,168h26.53V33.3Z"/><path class="cls-1" d="M311.32,55V33.3H233.77V168h77.55V146.23H257.26V111.41h40.39V89.48H257.26V55Z"/></svg>